<?xml version="1.0" standalone="no"?>
<!DOCTYPE svg PUBLIC "-//W3C//DTD SVG 20010904//EN"
 "http://www.w3.org/TR/2001/REC-SVG-20010904/DTD/svg10.dtd">
<svg version="1.0" xmlns="http://www.w3.org/2000/svg"
 width="512.000000pt" height="512.000000pt" viewBox="0 0 512.000000 512.000000"
 preserveAspectRatio="xMidYMid meet">
<metadata>
Created by potrace 1.14, written by Peter Selinger 2001-2017
</metadata>
<g transform="translate(0.000000,512.000000) scale(0.100000,-0.100000)"
fill="#000000" stroke="none">
<path d="M2375 5114 c-538 -55 -959 -215 -1365 -517 -122 -92 -395 -365 -487
-487 -269 -361 -437 -766 -499 -1205 -26 -180 -26 -510 0 -690 62 -438 233
-850 499 -1204 154 -204 401 -435 629 -588 127 -84 382 -213 532 -268 138 -51
376 -110 531 -131 178 -25 509 -25 695 0 548 74 1064 331 1460 726 58 58 136
144 173 190 90 112 223 311 286 430 120 227 219 533 263 815 29 186 31 539 5
720 -65 442 -234 850 -499 1202 -89 118 -282 320 -399 418 -359 300 -795 496
-1262 566 -126 19 -465 33 -562 23z m351 -1130 c251 -52 468 -267 534 -528 17
-68 20 -113 20 -317 l0 -238 -32 -18 c-46 -24 -132 -22 -166 4 l-27 20 -5 244
c-5 218 -8 250 -27 297 -115 284 -424 403 -693 267 -97 -49 -186 -152 -233
-267 -19 -47 -22 -79 -27 -297 l-5 -244 -27 -20 c-34 -26 -120 -28 -165 -4
l-33 18 0 238 c0 205 3 249 20 317 53 211 191 380 385 474 157 76 300 92 481
54z m-171 -1304 c848 0 929 1 955 17 16 9 33 26 39 37 6 14 10 -176 10 -602
l1 -624 -34 -34 -34 -34 -927 0 c-847 0 -929 1 -955 17 -16 9 -33 27 -39 40
-8 16 -11 218 -11 637 l0 614 34 -34 34 -34 927 0z"/>
<path d="M2503 2235 c-49 -21 -75 -69 -70 -129 4 -42 10 -55 41 -83 l36 -33 0
-110 c0 -109 0 -110 25 -116 14 -3 36 -3 50 0 25 6 25 7 25 116 l0 110 36 33
c31 28 37 41 41 83 5 61 -21 108 -72 130 -43 17 -71 17 -112 -1z"/>
</g>
</svg>
